<?xml version="1.0" encoding="utf-8"?>
<!-- Generator: Adobe Illustrator 24.1.1, SVG Export Plug-In . SVG Version: 6.00 Build 0)  -->
<svg version="1.1" id="Capa_1" xmlns="http://www.w3.org/2000/svg" xmlns:xlink="http://www.w3.org/1999/xlink" x="0px" y="0px"
	 viewBox="0 0 443 40.6" style="enable-background:new 0 0 443 40.6;" xml:space="preserve">
<style type="text/css">
	.st0{enable-background:new    ;}
	.st1{fill:#FFFFFF;}
</style>
<g class="st0">
	<path class="st1" d="M22.5,32.7l6.9-19.9c0.1-0.2,0.1-0.5,0.1-0.8c0-1-0.4-1.5-1.3-1.5H17.8c-1.4,0-2.4,0.8-2.9,2.3L7.9,32.7H0
		l10.1-29h46.7c2.9,0,4.3,1.2,4.3,3.7c0,1-0.3,2.4-0.8,3.9l-7.6,21.3h-7.8l6.9-19.9c0.1-0.2,0.1-0.5,0.1-0.8c0-1-0.4-1.5-1.3-1.5
		H40.2c-1.4,0-2.4,0.8-2.9,2.3l-6.9,19.9H22.5z"/>
</g>
<g class="st0">
	<path class="st1" d="M97.5,3.7L88.3,30c-0.3,0.9-0.9,1.7-1.8,2.1c-0.7,0.4-1.5,0.5-2.3,0.5H63.1c-2.9,0-4.3-1.2-4.3-3.7
		c0-1.1,0.3-2.4,0.8-3.9l7.6-21.3H75l-6.9,19.9c-0.1,0.2-0.1,0.5-0.1,0.8c0,1,0.4,1.5,1.3,1.5h10.5c1.4,0,2.4-0.7,2.9-2.1l6.9-20
		H97.5z"/>
</g>
<g class="st0">
	<path class="st1" d="M123.9,25.9l-2.4,6.8H94.2l9.9-29h7.9l-7.6,22.1H123.9z"/>
</g>
<g class="st0">
	<path class="st1" d="M131.5,32.7l-7.9,0l7.8-22.1h-11.9l2.5-6.9h31.4l-2.4,6.9h-11.6L131.5,32.7L131.5,32.7z"/>
</g>
<g class="st0">
	<path class="st1" d="M165.2,3.7L155,32.7H147l10.3-29.1H165.2z"/>
</g>
<g class="st0">
	<path class="st1" d="M199,11.4l-7.6,21.3h-7.8l6.9-19.9c0.1-0.2,0.1-0.5,0.1-0.7c0-1-0.4-1.5-1.3-1.5h-10.5c-1.4,0-2.4,0.7-2.9,2.2
		l-6.9,20h-7.9l10.1-29h24.3c2.9,0,4.4,1.2,4.4,3.7C199.8,8.5,199.5,9.8,199,11.4z"/>
</g>
<g class="st0">
	<path class="st1" d="M233.5,9.9l-6.9,19.5c-0.8,2.2-2.1,3.2-4.1,3.2h-26.8l10.3-29h22.9c1.5,0,2.7,0.3,3.6,1c0.9,0.7,1.4,1.7,1.4,3
		C233.9,8.4,233.8,9.1,233.5,9.9z M224.9,12c0-0.1,0-0.2,0-0.3c0-0.8-0.6-1.2-1.9-1.2h-11.5l-5.4,15.3h11.4c1.6,0,2.6-0.5,3-1.6
		l0.2-0.6C220.9,23.3,222.2,19.5,224.9,12z"/>
</g>
<g class="st0">
	<path class="st1" d="M269.9,3.7L260.7,30c-0.3,0.9-0.9,1.7-1.8,2.1c-0.7,0.4-1.5,0.5-2.3,0.5h-21.1c-2.9,0-4.3-1.2-4.3-3.7
		c0-1.1,0.3-2.4,0.8-3.9l7.6-21.3h7.8l-6.9,19.9c-0.1,0.2-0.1,0.5-0.1,0.8c0,1,0.4,1.5,1.3,1.5h10.5c1.4,0,2.4-0.7,2.9-2.1l6.9-20
		H269.9z"/>
</g>
<g class="st0">
	<path class="st1" d="M300.3,3.7l-2.4,6.8h-17.2c-0.9,0-1.6,0.2-2.1,0.5c-0.3,0.2-0.6,0.6-0.9,1.1c0,0.1-0.1,0.3-0.1,0.5
		c0,0.3,0,0.4,0,0.4c0,0.1-0.1,0.3-0.1,0.4c0,0.7,0.5,1.1,1.6,1.1h13.2c1.5,0,2.7,0.3,3.6,1c0.9,0.7,1.4,1.7,1.4,3
		c0,0.7-0.1,1.4-0.4,2.2c-0.7,2-1.8,4.8-3.2,8.6c-0.4,1.1-0.8,1.9-1.4,2.3c-0.7,0.6-1.6,0.9-2.8,0.9h-24.5l2.4-6.8h17.1
		c1.6,0,2.5-0.5,3-1.6c0.4-0.9,0.6-1.4,0.7-1.3c0-0.1,0-0.2,0-0.3c0-0.8-0.6-1.1-1.9-1.1h-13.2c-1.5,0-2.6-0.3-3.5-1
		c-1-0.7-1.5-1.7-1.5-3c0-0.7,0.1-1.4,0.4-2.2c1.8-5.3,2.8-8.1,2.8-8.3c0.5-2.1,1.9-3.2,4.1-3.2H300.3z"/>
</g>
<g class="st0">
	<path class="st1" d="M313.3,32.7l-7.9,0l7.8-22.1h-11.9l2.5-6.9h31.4l-2.4,6.9h-11.6L313.3,32.7L313.3,32.7z"/>
</g>
<g class="st0">
	<path class="st1" d="M369.4,3.7l-2.4,6.8H347c-0.8,0-1.6,0.2-2.2,0.6s-1,0.8-1.2,1.3l-7.2,20.3h-7.9l8.7-24.8
		c1-2.8,3.2-4.2,6.5-4.2H369.4z"/>
</g>
<g class="st0">
	<path class="st1" d="M379.5,3.7l-10.3,29.1h-7.9l10.3-29.1H379.5z"/>
</g>
<g class="st0">
	<path class="st1" d="M413.6,9.5l-8.2,23.2H381c-1.3,0-2.3-0.4-3-1.3c-0.5-0.8-0.8-1.7-0.8-2.8c0-0.8,0.1-1.5,0.4-2.2l3.1-9
		c0.8-2.2,2.3-3.3,4.6-3.3h18.7l0.5-1.7c0.1-0.2,0.1-0.4,0.1-0.6c0-0.8-0.5-1.3-1.6-1.3h-20l2.4-6.8h24.6c2.6,0,3.9,1.3,3.9,3.9
		C414,8.3,413.8,8.9,413.6,9.5z M401.7,21h-12.5c-1.1,0-1.9,0.5-2.3,1.6l-0.5,1.3c-0.1,0.3-0.1,0.6-0.1,0.9c0,0.8,0.4,1.2,1.2,1.2
		H400L401.7,21z"/>
</g>
<g class="st0">
	<path class="st1" d="M441.4,25.9l-2.4,6.8h-27.2l9.9-29h7.9l-7.6,22.1H441.4z"/>
</g>
</svg>
